# xmcd CD database file
#
# Track frame offsets:
#	150
#	15173
#	29406
#	45065
#	62162
#	75364
#	90090
#	105645
#	124414
#	143008
#
# Disc length: 2139 seconds
#
# Revision: 0
# Processed by: cddbd v1.5.2PL0 Copyright (c) Steve Scherf et al.
# Submitted via: CDex 1.51
#
DISCID=6608590a
DTITLE=Blackhawk - Music
DYEAR=2006
DGENRE=Country
TTITLE0=Heart With a View
TTITLE1=I'm Gonna Find A Way
TTITLE2=Don't Put Yourself Down
TTITLE3=Not By Chance
TTITLE4=Blue Highway
TTITLE5=Wide Open Spaces
TTITLE6=Where The Wild Roses Grow
TTITLE7=Baby The Rain Must Fall
TTITLE8=Breathe The Night
TTITLE9=Heavy Hand
EXTD=YEAR: 2006
EXTT0=
EXTT1=
EXTT2=
EXTT3=
EXTT4=
EXTT5=
EXTT6=
EXTT7=
EXTT8=
EXTT9=
PLAYORDER=
